<svg width="16" height="21" viewBox="0 0 16 21" fill="none" xmlns="http://www.w3.org/2000/svg">
<path d="M8 4.725C8.75776 4.725 9.48449 5.00156 10.0203 5.49384C10.5561 5.98613 10.8571 6.65381 10.8571 7.35C10.8571 7.69472 10.7832 8.03606 10.6397 8.35454C10.4961 8.67302 10.2856 8.9624 10.0203 9.20615C9.755 9.44991 9.44003 9.64326 9.09338 9.77518C8.74674 9.9071 8.37521 9.975 8 9.975C7.24224 9.975 6.51551 9.69844 5.9797 9.20615C5.44388 8.71387 5.14286 8.04619 5.14286 7.35C5.14286 6.65381 5.44388 5.98613 5.9797 5.49384C6.51551 5.00156 7.24224 4.725 8 4.725ZM8 0C10.1217 0 12.1566 0.774373 13.6569 2.15277C15.1571 3.53116 16 5.40066 16 7.35C16 12.8625 8 21 8 21C8 21 0 12.8625 0 7.35C0 5.40066 0.842855 3.53116 2.34315 2.15277C3.84344 0.774373 5.87827 0 8 0ZM8 2.1C6.48448 2.1 5.03103 2.65312 3.95939 3.63769C2.88775 4.62226 2.28571 5.95761 2.28571 7.35C2.28571 8.4 2.28571 10.5 8 17.5455C13.7143 10.5 13.7143 8.4 13.7143 7.35C13.7143 5.95761 13.1122 4.62226 12.0406 3.63769C10.969 2.65312 9.51552 2.1 8 2.1Z" fill="#EAEAEA"/>
</svg>
