<svg width="722" height="737" viewBox="0 0 722 737" fill="none" xmlns="http://www.w3.org/2000/svg">
<g clip-path="url(#clip0_737_206)">
<path d="M356.534 319.88L369.713 252.899H306.45L320.087 319.88H356.534Z" fill="#ADC4D1"/>
<g style="mix-blend-mode:multiply" opacity="0.45">
<g style="mix-blend-mode:multiply">
<path d="M306.45 252.899L311.765 279C320.447 283.055 330.086 284.63 339.611 283.55C349.136 282.47 358.175 278.777 365.724 272.882L369.664 252.85L306.45 252.899Z" fill="#C5D3D3"/>
</g>
</g>
<path d="M333.531 270.815C361.028 270.532 383.089 248.065 382.805 220.633C382.522 193.201 360.002 171.192 332.506 171.474C305.01 171.757 282.949 194.224 283.232 221.656C283.515 249.088 306.035 271.097 333.531 270.815Z" fill="#7993A2"/>
<path d="M368.994 212.166C368.994 234.661 351.138 252.948 329.113 252.948C307.088 252.948 289.265 234.596 289.265 212.166C289.265 189.735 307.121 171.383 329.146 171.383C351.171 171.383 368.994 189.67 368.994 212.166Z" fill="#9DB0BB"/>
<path d="M201.95 427.414L77.2557 434.951C68.8839 435.457 62 430.057 62 422.733V326.65C62 319.39 68.8839 313.926 77.2557 314.431L201.95 321.968C205.008 322.14 207.888 323.46 210.011 325.663C212.134 327.866 213.343 330.788 213.396 333.844V415.539C213.343 418.594 212.134 421.516 210.011 423.719C207.888 425.922 205.008 427.242 201.95 427.414Z" fill="#DFE8ED"/>
<g style="mix-blend-mode:multiply" opacity="0.55">
<path d="M77.2557 434.951L201.95 427.414L170.359 393.614L92.1516 402.423L76.7979 434.935C76.9501 434.948 77.1029 434.953 77.2557 434.951Z" fill="#8BA1A4"/>
</g>
<path d="M311.192 302.327C311.192 302.327 313.383 319.864 291.097 324.154C282.022 325.899 84.7772 335.573 84.7772 335.573V418.671L348.13 341.609C348.13 341.609 371.921 328.95 365.102 302.327H311.192Z" fill="#CDDBE3"/>
<g style="mix-blend-mode:screen" opacity="0.65">
<path d="M315.427 306.862C315.427 306.862 313.416 324.513 291.129 328.46C282.839 329.929 117.954 339.651 89.1593 341.348V375.98C165.176 344.61 322.72 364.316 322.72 306.862H315.427Z" fill="#3399CC"/>
</g>
<g style="mix-blend-mode:multiply" opacity="0.23">
<path d="M365.102 302.327H329.669C346.462 349.635 255.811 359.422 183.13 359.52C164.181 359.524 145.913 366.566 131.885 379.275C118.363 391.591 109.549 403.369 84.7772 397.97V418.654L348.13 341.609C348.13 341.609 371.921 328.95 365.102 302.327Z" fill="#B8B2AD"/>
</g>
<path d="M179.124 418.671H84.7772L348.146 341.609L179.124 418.671Z" fill="#8BA1A4"/>
<g style="mix-blend-mode:multiply">
<path d="M379.639 203.699C375.904 202.27 372.08 201.082 368.193 200.143C326.023 189.899 298.782 191.22 284.802 201.579C283.817 205.022 283.311 208.585 283.297 212.166C283.299 213.588 283.376 215.009 283.526 216.423C283.379 217.973 283.297 219.523 283.297 221.105C283.316 223.47 283.502 225.83 283.853 228.169C283.853 228.169 309.426 230.175 328.705 240.615C343.126 248.429 358.807 263.633 358.807 263.633C377.66 250.583 382.86 234.367 382.86 221.105C382.846 215.157 381.755 209.26 379.639 203.699Z" fill="#D5DFDF"/>
</g>
<path d="M257.119 209.246L397.788 248.87L466.202 231.268L257.119 178.3V209.246Z" fill="#7993A2"/>
<path d="M257.119 209.246L397.788 248.87L398.884 206.211L257.119 178.3V209.246Z" fill="#97ABB6"/>
<g style="mix-blend-mode:multiply">
<path d="M284.671 217.011L397.788 248.87L398.197 232.981C359.199 232.018 324.159 204.254 284.671 217.011Z" fill="#E0E7E7"/>
</g>
<path d="M157.622 169.23L534.533 255.476L586.367 5.88892L201.427 18.9392C201.427 18.9392 84.8753 75.1209 157.622 169.23Z" fill="#DFE8ED"/>
<g style="mix-blend-mode:multiply" opacity="0.35">
<path d="M280.223 197.288L498.315 247.173C430.622 210.502 361.521 178.055 280.223 197.288Z" fill="#BCB7B6"/>
</g>
<path d="M721.984 99.884L645.852 131.254L549.904 14.0944C549.904 14.0944 557.491 8.97216 575.886 6.81886C612.382 2.51225 671.884 7.84656 721.984 99.884Z" fill="#779194"/>
<path d="M691.734 132.82C691.734 203.536 635.796 260.876 566.827 260.876C497.858 260.876 441.92 203.536 441.92 132.82C441.92 62.1032 497.841 6.80249 566.827 6.80249C635.813 6.80249 691.734 62.1032 691.734 132.82Z" fill="#C4D5DE"/>
<path d="M662.58 133.064C662.58 187.288 619.707 231.235 566.827 231.235C513.947 231.235 471.058 187.288 471.058 133.064C471.058 78.8402 513.931 36.443 566.827 36.443C619.723 36.443 662.58 78.8402 662.58 133.064Z" fill="#414843"/>
<path d="M653.75 133.13C653.75 182.362 614.834 222.263 566.827 222.263C518.82 222.263 479.888 182.395 479.888 133.13C479.888 83.8647 518.804 45.3662 566.827 45.3662C614.851 45.3662 653.75 83.8973 653.75 133.13Z" fill="#94B3C3"/>
<path d="M627.245 132.82C627.245 168.708 601.884 197.745 570.621 197.745C539.357 197.745 513.996 168.675 513.996 132.82C513.996 96.9639 539.357 67.8943 570.621 67.8943C601.884 67.8943 627.245 96.9639 627.245 132.82Z" fill="#53535D"/>
<path d="M552.569 181.122C573.872 181.122 591.141 159.496 591.141 132.82C591.141 106.143 573.872 84.5172 552.569 84.5172C531.266 84.5172 513.996 106.143 513.996 132.82C513.996 159.496 531.266 181.122 552.569 181.122Z" fill="#75757D"/>
<g style="mix-blend-mode:multiply">
<path d="M566.827 6.80252C570.424 6.80252 573.973 6.99828 577.488 7.29191C577.586 6.93302 577.701 6.59045 577.799 6.23157L201.492 18.9883C196.215 21.6692 191.114 24.6823 186.22 28.0093C160.778 44.991 115.011 85.3981 141.892 143.831L282.169 182.28C308.805 187.174 336.635 184.581 360.982 172.705C389.449 158.79 422.659 157.256 447.316 158.822C459.503 159.526 471.615 161.201 483.534 163.831C483.649 163.178 481.081 95.4632 527.682 61.6628C539.292 53.2127 568.053 45.6272 583.881 47.128C653.096 53.6532 690.083 112.869 690.083 112.869C680.632 51.973 629.125 6.80252 566.827 6.80252Z" fill="#D5DFDF"/>
</g>
<path d="M474.557 130.438C474.557 130.438 405.048 113.391 352.005 139.312C327.674 151.188 299.845 153.847 273.208 148.888L121.224 120.536C121.224 120.536 83.2402 36.3288 203.977 0L579.663 6.52516C579.663 6.52516 499.395 5.18749 474.557 130.438Z" fill="#DFE8ED"/>
<path d="M125.279 82.7554C125.162 92.0644 126.925 101.302 130.462 109.916L270.183 135.087C294.71 139.492 320.267 137.126 342.636 126.605C391.395 103.652 461.771 115.773 461.771 115.773C464.845 100.121 469.632 84.8532 476.045 70.2434C359.118 78.824 306.45 99.1988 125.279 82.7554Z" fill="#C6D6DF"/>
<g style="mix-blend-mode:screen" opacity="0.65">
<path d="M483.599 55.4312C509.631 11.2069 544.491 9.00469 550.852 8.98838L206.528 3.16467C154.957 18.091 134.91 42.1852 128.19 63.7019C167.302 69.1341 206.414 73.8485 245.526 73.8485C326.873 78.9218 404.149 52.919 483.599 55.4312Z" fill="#3399CC"/>
</g>
<path d="M580.317 129.427C579.368 136.196 574.234 141.074 568.871 140.324C563.508 139.573 559.894 133.472 560.842 126.702C561.791 119.932 566.925 115.039 572.288 115.805C577.652 116.572 581.314 122.657 580.317 129.427Z" fill="white"/>
<path d="M566.206 111.303C565.7 112.076 564.979 112.684 564.131 113.052C563.283 113.421 562.345 113.535 561.434 113.378C560.522 113.222 559.676 112.804 559 112.174C558.324 111.544 557.847 110.731 557.628 109.834C557.41 108.938 557.459 107.997 557.769 107.127C558.08 106.258 558.638 105.499 559.376 104.942C560.114 104.386 560.999 104.057 561.922 103.995C562.845 103.934 563.766 104.144 564.571 104.598C565.676 105.274 566.468 106.358 566.774 107.614C567.08 108.87 566.876 110.197 566.206 111.303Z" fill="white"/>
<g style="mix-blend-mode:screen" opacity="0.35">
<path d="M450.75 40.8312C471.649 33.0998 490.645 20.9902 506.458 5.318L203.961 0C147.811 16.8675 125.999 44.0448 118.706 68.4C181.593 85.8548 187.381 48.9224 283.722 41.9405C302.003 40.6191 411.016 52.1524 450.75 40.8312Z" fill="#AAAAA6"/>
</g>
<g style="mix-blend-mode:multiply" opacity="0.45">
<path d="M404.394 100.275C344.827 93.7503 311.716 106.801 252.148 100.275C229.06 94.517 205.972 113.848 182.884 132.037L273.208 148.888C299.845 153.782 327.674 151.188 352.005 139.312C377.627 126.784 407.076 124.304 430.687 125.071C421.285 115.071 416.543 100.275 404.394 100.275Z" fill="#D5DFDF"/>
</g>
<g style="mix-blend-mode:screen" opacity="0.21">
<path d="M212.055 337.726C169.542 344.48 127.487 346.519 84.7772 342.016V353.99C109.402 370.531 148.138 377.089 198.353 352.897C233.524 335.948 271.933 350.042 283.281 324.888L258.885 326.275C245.738 332 230.205 334.839 212.055 337.726Z" fill="#BFBAB5"/>
</g>
<g style="mix-blend-mode:screen" opacity="0.75">
<path d="M604.844 148.986C559.436 140.503 520.7 146.572 493.966 181.612C501.683 193.981 512.42 204.194 525.171 211.296C537.923 218.397 552.272 222.154 566.876 222.214C602.456 222.214 633.033 200.274 646.49 168.888C637.889 161.269 617.925 150.862 604.844 148.986Z" fill="#94B3C3"/>
</g>
</g>
<g filter="url(#filter0_d_737_206)">
<circle cx="269.23" cy="662.764" r="195.01" transform="rotate(15.9349 269.23 662.764)" fill="#9EADBA"/>
</g>
<g filter="url(#filter1_d_737_206)">
<circle cx="30.6528" cy="451.056" r="195.01" transform="rotate(15.9349 30.6528 451.056)" fill="#A4BAC2"/>
</g>
<g filter="url(#filter2_d_737_206)">
<circle cx="200.21" cy="660.822" r="195.01" transform="rotate(15.9349 200.21 660.822)" fill="#E9F4F8"/>
</g>
<g filter="url(#filter3_d_737_206)">
<circle cx="141.354" cy="644.017" r="195.01" transform="rotate(15.9349 141.354 644.017)" fill="#53535D"/>
</g>
<defs>
<filter id="filter0_d_737_206" x="57.1697" y="454.704" width="416.121" height="416.121" filterUnits="userSpaceOnUse" color-interpolation-filters="sRGB">
<feFlood flood-opacity="0" result="BackgroundImageFix"/>
<feColorMatrix in="SourceAlpha" type="matrix" values="0 0 0 0 0 0 0 0 0 0 0 0 0 0 0 0 0 0 127 0" result="hardAlpha"/>
<feOffset dx="-4"/>
<feGaussianBlur stdDeviation="6.5"/>
<feComposite in2="hardAlpha" operator="out"/>
<feColorMatrix type="matrix" values="0 0 0 0 0 0 0 0 0 0 0 0 0 0 0 0 0 0 0.25 0"/>
<feBlend mode="normal" in2="BackgroundImageFix" result="effect1_dropShadow_737_206"/>
<feBlend mode="normal" in="SourceGraphic" in2="effect1_dropShadow_737_206" result="shape"/>
</filter>
<filter id="filter1_d_737_206" x="-181.408" y="242.995" width="416.121" height="416.121" filterUnits="userSpaceOnUse" color-interpolation-filters="sRGB">
<feFlood flood-opacity="0" result="BackgroundImageFix"/>
<feColorMatrix in="SourceAlpha" type="matrix" values="0 0 0 0 0 0 0 0 0 0 0 0 0 0 0 0 0 0 127 0" result="hardAlpha"/>
<feOffset dx="-4"/>
<feGaussianBlur stdDeviation="6.5"/>
<feComposite in2="hardAlpha" operator="out"/>
<feColorMatrix type="matrix" values="0 0 0 0 0 0 0 0 0 0 0 0 0 0 0 0 0 0 0.25 0"/>
<feBlend mode="normal" in2="BackgroundImageFix" result="effect1_dropShadow_737_206"/>
<feBlend mode="normal" in="SourceGraphic" in2="effect1_dropShadow_737_206" result="shape"/>
</filter>
<filter id="filter2_d_737_206" x="-11.8503" y="452.761" width="416.121" height="416.121" filterUnits="userSpaceOnUse" color-interpolation-filters="sRGB">
<feFlood flood-opacity="0" result="BackgroundImageFix"/>
<feColorMatrix in="SourceAlpha" type="matrix" values="0 0 0 0 0 0 0 0 0 0 0 0 0 0 0 0 0 0 127 0" result="hardAlpha"/>
<feOffset dx="-4"/>
<feGaussianBlur stdDeviation="6.5"/>
<feComposite in2="hardAlpha" operator="out"/>
<feColorMatrix type="matrix" values="0 0 0 0 0 0 0 0 0 0 0 0 0 0 0 0 0 0 0.25 0"/>
<feBlend mode="normal" in2="BackgroundImageFix" result="effect1_dropShadow_737_206"/>
<feBlend mode="normal" in="SourceGraphic" in2="effect1_dropShadow_737_206" result="shape"/>
</filter>
<filter id="filter3_d_737_206" x="-70.7061" y="435.957" width="416.121" height="416.121" filterUnits="userSpaceOnUse" color-interpolation-filters="sRGB">
<feFlood flood-opacity="0" result="BackgroundImageFix"/>
<feColorMatrix in="SourceAlpha" type="matrix" values="0 0 0 0 0 0 0 0 0 0 0 0 0 0 0 0 0 0 127 0" result="hardAlpha"/>
<feOffset dx="-4"/>
<feGaussianBlur stdDeviation="6.5"/>
<feComposite in2="hardAlpha" operator="out"/>
<feColorMatrix type="matrix" values="0 0 0 0 0 0 0 0 0 0 0 0 0 0 0 0 0 0 0.25 0"/>
<feBlend mode="normal" in2="BackgroundImageFix" result="effect1_dropShadow_737_206"/>
<feBlend mode="normal" in="SourceGraphic" in2="effect1_dropShadow_737_206" result="shape"/>
</filter>
<clipPath id="clip0_737_206">
<rect width="660" height="435" fill="white" transform="translate(62)"/>
</clipPath>
</defs>
</svg>
