<svg width="21" height="22" viewBox="0 0 21 22" fill="none" xmlns="http://www.w3.org/2000/svg">
<path d="M21 20.8256C21 21.1371 20.8771 21.4358 20.6583 21.656C20.4395 21.8763 20.1428 22 19.8333 22H1.16667C0.857248 22 0.560501 21.8763 0.341709 21.656C0.122917 21.4358 2.80829e-07 21.1371 2.80829e-07 20.8256V8.48246C-0.000123064 8.30349 0.0403867 8.12686 0.118435 7.96606C0.196484 7.80527 0.310007 7.66455 0.450334 7.55467L9.78367 0.247442C9.98847 0.0870704 10.2405 0 10.5 0C10.7595 0 11.0115 0.0870704 11.2163 0.247442L20.5497 7.55467C20.69 7.66455 20.8035 7.80527 20.8816 7.96606C20.9596 8.12686 21.0001 8.30349 21 8.48246V20.8256ZM18.6667 19.6512V9.05557L10.5 2.66204L2.33333 9.05557V19.6512H18.6667Z" fill="#EAEAEA"/>
</svg>
