<svg width="20" height="17" viewBox="0 0 20 17" fill="none" xmlns="http://www.w3.org/2000/svg">
<path d="M10.8318 6.5875C10.8318 6.41842 10.8977 6.25627 11.0149 6.13672C11.1321 6.01717 11.2911 5.95 11.4569 5.95H16.041C16.2068 5.95 16.3658 6.01717 16.483 6.13672C16.6003 6.25627 16.6661 6.41842 16.6661 6.5875C16.6661 6.75658 16.6003 6.91873 16.483 7.03828C16.3658 7.15783 16.2068 7.225 16.041 7.225H11.4569C11.2911 7.225 11.1321 7.15783 11.0149 7.03828C10.8977 6.91873 10.8318 6.75658 10.8318 6.5875V6.5875ZM11.4569 9.35C11.2911 9.35 11.1321 9.41717 11.0149 9.53672C10.8977 9.65627 10.8318 9.81842 10.8318 9.9875C10.8318 10.1566 10.8977 10.3187 11.0149 10.4383C11.1321 10.5578 11.2911 10.625 11.4569 10.625H16.041C16.2068 10.625 16.3658 10.5578 16.483 10.4383C16.6003 10.3187 16.6661 10.1566 16.6661 9.9875C16.6661 9.81842 16.6003 9.65627 16.483 9.53672C16.3658 9.41717 16.2068 9.35 16.041 9.35H11.4569ZM7.70628 6.5875C7.70628 6.98201 7.55261 7.36036 7.27908 7.63932C7.00554 7.91828 6.63455 8.075 6.24771 8.075C5.86087 8.075 5.48987 7.91828 5.21634 7.63932C4.9428 7.36036 4.78913 6.98201 4.78913 6.5875C4.78913 6.19299 4.9428 5.81464 5.21634 5.53568C5.48987 5.25672 5.86087 5.1 6.24771 5.1C6.63455 5.1 7.00554 5.25672 7.27908 5.53568C7.55261 5.81464 7.70628 6.19299 7.70628 6.5875V6.5875ZM4.16403 8.925H8.33139C8.55244 8.925 8.76444 9.01455 8.92074 9.17396C9.07705 9.33337 9.16486 9.54957 9.16486 9.775V10.2C9.16486 10.2 8.74812 12.325 6.24771 12.325C3.74729 12.325 3.33056 10.2 3.33056 10.2V9.775C3.33056 9.54957 3.41837 9.33337 3.57467 9.17396C3.73098 9.01455 3.94298 8.925 4.16403 8.925ZM0 2.3375C0 1.71756 0.241483 1.123 0.671326 0.684638C1.10117 0.246271 1.68416 0 2.29205 0H17.708C18.3158 0 18.8988 0.246271 19.3287 0.684638C19.7585 1.123 20 1.71756 20 2.3375V14.6625C20 15.2824 19.7585 15.877 19.3287 16.3154C18.8988 16.7537 18.3158 17 17.708 17H2.29288C1.68499 17 1.102 16.7537 0.672159 16.3154C0.242316 15.877 0.000833611 15.2824 0.000833611 14.6625V2.3375H0ZM2.29205 1.275C1.71695 1.275 1.25021 1.751 1.25021 2.3375V14.6625C1.25021 15.249 1.71695 15.725 2.29205 15.725H17.708C18.283 15.725 18.7498 15.249 18.7498 14.6625V2.3375C18.7498 1.751 18.283 1.275 17.708 1.275H2.29288H2.29205Z" fill="#EAEAEA"/>
</svg>
