<svg width="20" height="14" viewBox="0 0 20 14" fill="none" xmlns="http://www.w3.org/2000/svg">
<path d="M20 12.1739V1.73913C20 0.776812 19.2122 0 18.2363 0H1.76367C0.787772 0 0 0.776812 0 1.73913V12.1739C0 13.1362 0.787772 13.913 1.76367 13.913H18.2363C19.2122 13.913 20 13.1362 20 12.1739ZM18.4597 1.61159C18.8477 1.9942 18.6361 2.38841 18.4245 2.58551L13.6508 6.89855L18.2363 11.6058C18.3774 11.7681 18.4715 12.0232 18.3069 12.1971C18.154 12.3826 17.8013 12.371 17.6484 12.2551L12.5103 7.93043L9.99412 10.1913L7.48971 7.93043L2.35156 12.2551C2.19871 12.371 1.84597 12.3826 1.69312 12.1971C1.52851 12.0232 1.62258 11.7681 1.76367 11.6058L6.34921 6.89855L1.57554 2.58551C1.3639 2.38841 1.15226 1.9942 1.54027 1.61159C1.92828 1.22899 2.32804 1.41449 2.65726 1.69275L9.99412 7.53623L17.3427 1.69275C17.672 1.41449 18.0717 1.22899 18.4597 1.61159V1.61159Z" fill="#EAEAEA"/>
</svg>
