<svg width="21" height="17" viewBox="0 0 21 17" fill="none" xmlns="http://www.w3.org/2000/svg">
<path d="M0.916667 1.16417L2.09 0L17.4167 15.3267L16.2525 16.5L13.4292 13.6767C12.375 14.025 11.2567 14.2083 10.0833 14.2083C5.5 14.2083 1.58583 11.3575 0 7.33333C0.6325 5.72 1.64083 4.29917 2.92417 3.17167L0.916667 1.16417ZM10.0833 4.58333C10.8127 4.58333 11.5122 4.87306 12.0279 5.38879C12.5436 5.90451 12.8333 6.60399 12.8333 7.33333C12.8338 7.64552 12.7811 7.9555 12.6775 8.25L9.16667 4.73917C9.46116 4.63557 9.77115 4.58287 10.0833 4.58333M10.0833 0.458333C14.6667 0.458333 18.5808 3.30917 20.1667 7.33333C19.4185 9.23377 18.1472 10.8833 16.5 12.0908L15.1983 10.78C16.466 9.9031 17.4884 8.71663 18.1683 7.33333C17.4273 5.82078 16.2767 4.54646 14.8475 3.65521C13.4183 2.76397 11.7677 2.29156 10.0833 2.29167C9.08417 2.29167 8.10333 2.45667 7.18667 2.75L5.775 1.3475C7.095 0.779166 8.5525 0.458333 10.0833 0.458333ZM1.99833 7.33333C2.7394 8.84589 3.88994 10.1202 5.31917 11.0115C6.7484 11.9027 8.39899 12.3751 10.0833 12.375C10.7158 12.375 11.3392 12.3108 11.9167 12.1825L9.82667 10.0833C9.18882 10.015 8.59359 9.7303 8.13998 9.27669C7.68636 8.82308 7.4017 8.22785 7.33333 7.59L4.21667 4.46417C3.30917 5.24333 2.54833 6.215 1.99833 7.33333V7.33333Z" fill="#16324F"/>
</svg>
