<svg width="20" height="20" viewBox="0 0 20 20" fill="none" xmlns="http://www.w3.org/2000/svg">
<path d="M10 9.84683C12.7625 9.84683 15 7.6436 15 4.92342C15 2.20323 12.7625 0 10 0C7.2375 0 5 2.20323 5 4.92342C5 7.6436 7.2375 9.84683 10 9.84683ZM10 2.46171C11.375 2.46171 12.5 3.56948 12.5 4.92342C12.5 6.27736 11.375 7.38512 10 7.38512C8.625 7.38512 7.5 6.27736 7.5 4.92342C7.5 3.56948 8.625 2.46171 10 2.46171ZM10 11.0777C6.6625 11.0777 0 12.727 0 16.0011V19.6937H20V16.0011C20 12.727 13.3375 11.0777 10 11.0777ZM17.5 17.232H2.5V16.0134C2.75 15.1272 6.625 13.5394 10 13.5394C13.375 13.5394 17.25 15.1272 17.5 16.0011V17.232Z" fill="#EAEAEA"/>
</svg>
