<svg width="22" height="17.4" viewBox="0 0 24 19" fill="none" xmlns="http://www.w3.org/2000/svg">
<path d="M12.7857 13.4302H14.3571M19.8571 10.9442V9.70117C19.8571 9.3715 19.6916 9.05533 19.3969 8.82222C19.1022 8.58911 18.7025 8.45815 18.2857 8.45815H2.57143C2.15466 8.45815 1.75496 8.58911 1.46026 8.82222C1.16556 9.05533 1 9.3715 1 9.70117V17.1593C1 17.489 1.16556 17.8052 1.46026 18.0383C1.75496 18.2714 2.15466 18.4023 2.57143 18.4023H18.2857C18.7025 18.4023 19.1022 18.2714 19.3969 18.0383C19.6916 17.8052 19.8571 17.489 19.8571 17.1593V15.9163V10.9442ZM19.8571 10.9442H13.5714C12.7379 10.9442 11.9385 11.2061 11.3491 11.6723C10.7597 12.1386 10.4286 12.7709 10.4286 13.4302C10.4286 14.0896 10.7597 14.7219 11.3491 15.1881C11.9385 15.6544 12.7379 15.9163 13.5714 15.9163H19.8571V10.9442ZM19.8571 10.9442C20.6907 10.9442 21.4901 11.2061 22.0795 11.6723C22.6689 12.1386 23 12.7709 23 13.4302C23 14.0896 22.6689 14.7219 22.0795 15.1881C21.4901 15.6544 20.6907 15.9163 19.8571 15.9163V10.9442ZM5.71429 8.45815V4.72907C5.71429 3.74006 6.21097 2.79156 7.09507 2.09222C7.97917 1.39288 9.17826 1 10.4286 1C11.6789 1 12.878 1.39288 13.7621 2.09222C14.6462 2.79156 15.1429 3.74006 15.1429 4.72907V8.45815H5.71429ZM19.0714 13.4302H20.6429H19.0714ZM15.9286 13.4302H17.5H15.9286Z" stroke="#EAEAEA"/>
</svg>
