<svg width="23" height="18" viewBox="0 0 23 18" fill="none" xmlns="http://www.w3.org/2000/svg">
<path d="M0.243995 0.192999C0.103072 0.304503 0.0173424 0.45227 0.00235896 0.609492C-0.0126245 0.766714 0.0441307 0.922977 0.162328 1.04993L0.243995 1.12508L4.72733 4.67147C2.54167 5.88294 0.981308 7.67701 0.332328 9.72474C0.284541 9.89272 0.321743 10.0688 0.435978 10.2154C0.550213 10.362 0.732412 10.4673 0.943611 10.509C1.15481 10.5507 1.37824 10.5254 1.56613 10.4384C1.75401 10.3515 1.89143 10.2098 1.949 10.0438C2.52528 8.22634 3.94486 6.64692 5.92566 5.61937L7.93733 7.21063C7.13037 7.87416 6.68464 8.76161 6.69592 9.68229C6.70719 10.603 7.17456 11.4834 7.99762 12.1345C8.82067 12.7855 9.93374 13.1552 11.0977 13.1641C12.2616 13.1731 13.3835 12.8205 14.2223 12.1822L20.799 17.3844C20.9477 17.5016 21.1468 17.57 21.3565 17.5761C21.5663 17.5822 21.7712 17.5254 21.9303 17.4172C22.0895 17.3089 22.1911 17.1572 22.215 16.9923C22.2388 16.8273 22.1831 16.6613 22.059 16.5275L21.9773 16.4523L15.1857 11.0787V11.0774L13.8523 10.024L10.664 7.50198H10.6657L7.46566 4.97205V4.97073L6.20733 3.97669L1.42233 0.192999C1.26606 0.0694219 1.05413 0 0.833162 0C0.612192 0 0.400268 0.0694219 0.243995 0.192999V0.192999ZM9.11566 8.14271L13.0423 11.2501C12.5178 11.6483 11.8169 11.8681 11.0899 11.8622C10.363 11.8563 9.66787 11.6252 9.1538 11.2186C8.63973 10.812 8.34763 10.2621 8.34019 9.68708C8.33275 9.11203 8.61055 8.55759 9.114 8.14271H9.11566ZM11.1107 3.07625C9.999 3.07625 8.92066 3.20545 7.90066 3.44935L9.27566 4.53568C11.653 4.16318 14.1204 4.52755 16.1677 5.55345C18.2151 6.57936 19.6857 8.18834 20.2757 10.0477C20.3332 10.2138 20.4706 10.3554 20.6585 10.4424C20.8464 10.5293 21.0698 10.5547 21.281 10.513C21.4922 10.4713 21.6744 10.3659 21.7887 10.2193C21.9029 10.0728 21.9401 9.89667 21.8923 9.72869C21.2894 7.828 19.9011 6.14111 17.9477 4.93586C15.9944 3.73061 13.588 3.0761 11.1107 3.07625V3.07625ZM11.3273 6.16121L15.5507 9.50062C15.4965 8.62843 15.0342 7.80335 14.2536 7.18588C13.473 6.56841 12.4299 6.2027 11.3273 6.15989V6.16121Z" fill="#16324F"/>
</svg>
