<svg width="21" height="15" viewBox="0 0 21 15" fill="none" xmlns="http://www.w3.org/2000/svg">
<path d="M4.82762 0.852679L0.75307 5.45049C0.514324 5.71978 0.324934 6.03952 0.19572 6.39143C0.0665064 6.74334 0 7.12053 0 7.50145C0 7.88237 0.0665064 8.25956 0.19572 8.61147C0.324934 8.96338 0.514324 9.28311 0.75307 9.55241L4.82762 14.1502C5.06627 14.4196 5.34962 14.6333 5.66148 14.7791C5.97334 14.925 6.3076 15 6.64517 15C6.98274 15 7.31701 14.925 7.62887 14.7791C7.94073 14.6333 8.22407 14.4196 8.46272 14.1502L12.5373 9.55241C12.776 9.28311 12.9654 8.96338 13.0946 8.61147C13.2238 8.25956 13.2903 7.88237 13.2903 7.50145C13.2903 7.12053 13.2238 6.74334 13.0946 6.39143C12.9654 6.03952 12.776 5.71978 12.5373 5.45049L8.46401 0.852679C8.22536 0.583273 7.94201 0.369562 7.63015 0.223755C7.31829 0.0779471 6.98403 0.0028997 6.64646 0.0028997C6.30889 0.0028997 5.97463 0.0779471 5.66277 0.223755C5.3509 0.369562 5.06756 0.583273 4.82891 0.852679H4.82762ZM1.66152 6.47706L5.73736 1.87635C5.97832 1.60452 6.3051 1.45182 6.64582 1.45182C6.98654 1.45182 7.31331 1.60452 7.55427 1.87635L11.6288 6.47561C11.8697 6.74751 12.005 7.11625 12.005 7.50072C12.005 7.8852 11.8697 8.25394 11.6288 8.52584L7.55427 13.1237C7.31331 13.3955 6.98654 13.5482 6.64582 13.5482C6.3051 13.5482 5.97832 13.3955 5.73736 13.1237L1.66024 8.52729C1.41935 8.25539 1.28403 7.88665 1.28403 7.50217C1.28403 7.1177 1.41935 6.74896 1.66024 6.47706H1.66152ZM12.5386 14.1517L11.4078 12.8757L12.3176 11.852L13.447 13.1251C13.688 13.3969 14.0147 13.5496 14.3555 13.5496C14.6962 13.5496 15.023 13.3969 15.2639 13.1251L19.3385 8.52729C19.5794 8.25539 19.7147 7.88665 19.7147 7.50217C19.7147 7.1177 19.5794 6.74896 19.3385 6.47706L15.2639 1.87635C15.023 1.60452 14.6962 1.45182 14.3555 1.45182C14.0147 1.45182 13.688 1.60452 13.447 1.87635L12.3163 3.15086L11.4091 2.12574L12.5373 0.84978C12.7759 0.580374 13.0593 0.366663 13.3711 0.220855C13.683 0.0750474 14.0173 0 14.3548 0C14.6924 0 15.0267 0.0750474 15.3385 0.220855C15.6504 0.366663 15.9337 0.580374 16.1724 0.84978L20.2469 5.44904C20.4857 5.71833 20.6751 6.03807 20.8043 6.38998C20.9335 6.74189 21 7.11908 21 7.5C21 7.88092 20.9335 8.25811 20.8043 8.61002C20.6751 8.96193 20.4857 9.28166 20.2469 9.55096L16.1724 14.1488C15.9337 14.4182 15.6504 14.6319 15.3385 14.7777C15.0267 14.9235 14.6924 14.9985 14.3548 14.9985C14.0173 14.9985 13.683 14.9235 13.3711 14.7777C13.0593 14.6319 12.7759 14.4182 12.5373 14.1488L12.5386 14.1517Z" fill="#EAEAEA"/>
</svg>
