<svg width="21" height="14" viewBox="0 0 21 14" fill="none" xmlns="http://www.w3.org/2000/svg">
<path d="M10.0833 4.125C10.8127 4.125 11.5122 4.41473 12.0279 4.93046C12.5436 5.44618 12.8333 6.14565 12.8333 6.875C12.8333 7.60435 12.5436 8.30382 12.0279 8.81954C11.5122 9.33527 10.8127 9.625 10.0833 9.625C9.35399 9.625 8.65452 9.33527 8.13879 8.81954C7.62306 8.30382 7.33333 7.60435 7.33333 6.875C7.33333 6.14565 7.62306 5.44618 8.13879 4.93046C8.65452 4.41473 9.35399 4.125 10.0833 4.125M10.0833 0C14.6667 0 18.5808 2.85083 20.1667 6.875C18.5808 10.8992 14.6667 13.75 10.0833 13.75C5.5 13.75 1.58583 10.8992 0 6.875C1.58583 2.85083 5.5 0 10.0833 0ZM1.99833 6.875C2.73923 8.38778 3.8897 9.66235 5.31894 10.5538C6.74818 11.4453 8.39886 11.9179 10.0833 11.9179C11.7678 11.9179 13.4185 11.4453 14.8477 10.5538C16.277 9.66235 17.4274 8.38778 18.1683 6.875C17.4274 5.36222 16.277 4.08765 14.8477 3.19618C13.4185 2.30472 11.7678 1.83212 10.0833 1.83212C8.39886 1.83212 6.74818 2.30472 5.31894 3.19618C3.8897 4.08765 2.73923 5.36222 1.99833 6.875V6.875Z" fill="#16324F"/>
</svg>
