<svg width="21" height="21" viewBox="0 0 21 21" fill="none" xmlns="http://www.w3.org/2000/svg">
<path d="M10.8384 10.3087C13.6009 10.3087 15.8384 8.10552 15.8384 5.38533C15.8384 2.66514 13.6009 0.461914 10.8384 0.461914C8.07588 0.461914 5.83838 2.66514 5.83838 5.38533C5.83838 8.10552 8.07588 10.3087 10.8384 10.3087ZM10.8384 2.92362C12.2134 2.92362 13.3384 4.03139 13.3384 5.38533C13.3384 6.73927 12.2134 7.84704 10.8384 7.84704C9.46338 7.84704 8.33838 6.73927 8.33838 5.38533C8.33838 4.03139 9.46338 2.92362 10.8384 2.92362ZM10.8384 11.5396C7.50088 11.5396 0.838379 13.1889 0.838379 16.463V20.1556H20.8384V16.463C20.8384 13.1889 14.1759 11.5396 10.8384 11.5396ZM18.3384 17.6939H3.33838V16.4753C3.58838 15.5891 7.46338 14.0013 10.8384 14.0013C14.2134 14.0013 18.0884 15.5891 18.3384 16.463V17.6939Z" fill="#EAEAEA"/>
</svg>
