<svg width="21" height="21" viewBox="0 0 21 21" fill="none" xmlns="http://www.w3.org/2000/svg">
<path d="M10.5 13.65C9.625 13.65 8.88125 13.3438 8.26875 12.7312C7.65625 12.1187 7.35 11.375 7.35 10.5C7.35 9.625 7.65625 8.88125 8.26875 8.26875C8.88125 7.65625 9.625 7.35 10.5 7.35C11.375 7.35 12.1187 7.65625 12.7312 8.26875C13.3438 8.88125 13.65 9.625 13.65 10.5C13.65 11.375 13.3438 12.1187 12.7312 12.7312C12.1187 13.3438 11.375 13.65 10.5 13.65ZM10.5 21L6.0375 16.5375L7.5075 15.0675L10.5 18.0075L13.4925 15.0675L14.9625 16.5375L10.5 21ZM4.4625 14.9625L0 10.5L4.4625 6.0375L5.9325 7.5075L2.9925 10.5L5.9325 13.4925L4.4625 14.9625ZM7.5075 5.9325L6.0375 4.4625L10.5 0L14.9625 4.4625L13.4925 5.9325L10.5 2.9925L7.5075 5.9325ZM16.5375 14.9625L15.0675 13.4925L18.0075 10.5L15.0675 7.5075L16.5375 6.0375L21 10.5L16.5375 14.9625Z" fill="#EAEAEA"/>
</svg>
