<svg width="660" height="435" viewBox="0 0 660 435" fill="none" xmlns="http://www.w3.org/2000/svg">
<g clip-path="url(#clip0_483_192)">
<path d="M294.534 319.88L307.713 252.899H244.451L258.088 319.88H294.534Z" fill="#ADC4D1"/>
<g style="mix-blend-mode:multiply" opacity="0.45">
<g style="mix-blend-mode:multiply">
<path d="M244.451 252.899L249.765 279C258.447 283.055 268.086 284.63 277.611 283.55C287.136 282.47 296.175 278.777 303.724 272.882L307.664 252.85L244.451 252.899Z" fill="#C5D3D3"/>
</g>
</g>
<path d="M271.531 270.815C299.028 270.532 321.089 248.065 320.805 220.633C320.522 193.201 298.002 171.192 270.506 171.474C243.01 171.757 220.949 194.224 221.232 221.656C221.515 249.088 244.035 271.097 271.531 270.815Z" fill="#7993A2"/>
<path d="M306.994 212.166C306.994 234.661 289.139 252.948 267.113 252.948C245.088 252.948 227.266 234.596 227.266 212.166C227.266 189.735 245.121 171.383 267.146 171.383C289.171 171.383 306.994 189.67 306.994 212.166Z" fill="#9DB0BB"/>
<path d="M139.95 427.414L15.2557 434.951C6.88386 435.457 0 430.057 0 422.733V326.65C0 319.39 6.88386 313.926 15.2557 314.431L139.95 321.968C143.008 322.14 145.888 323.46 148.011 325.663C150.134 327.866 151.343 330.788 151.396 333.844V415.539C151.343 418.594 150.134 421.516 148.011 423.719C145.888 425.922 143.008 427.242 139.95 427.414Z" fill="#DFE8ED"/>
<g style="mix-blend-mode:multiply" opacity="0.55">
<path d="M15.2557 434.951L139.95 427.415L108.359 393.614L30.1516 402.423L14.7979 434.935C14.9501 434.948 15.1029 434.953 15.2557 434.951Z" fill="#8BA1A4"/>
</g>
<path d="M249.192 302.327C249.192 302.327 251.384 319.864 229.097 324.154C220.022 325.899 22.7773 335.573 22.7773 335.573V418.671L286.13 341.609C286.13 341.609 309.921 328.95 303.102 302.327H249.192Z" fill="#CDDBE3"/>
<g style="mix-blend-mode:screen" opacity="0.65">
<path d="M253.427 306.862C253.427 306.862 251.416 324.513 229.129 328.46C220.839 329.929 55.9536 339.651 27.1592 341.348V375.98C103.176 344.61 260.72 364.316 260.72 306.862H253.427Z" fill="#3399CC"/>
</g>
<g style="mix-blend-mode:multiply" opacity="0.23">
<path d="M303.102 302.327H267.669C284.462 349.635 193.811 359.422 121.13 359.52C102.181 359.524 83.9128 366.566 69.8852 379.275C56.3627 391.591 47.5494 403.369 22.7773 397.97V418.654L286.13 341.609C286.13 341.609 309.921 328.95 303.102 302.327Z" fill="#B8B2AD"/>
</g>
<path d="M117.124 418.671H22.7773L286.146 341.609L117.124 418.671Z" fill="#8BA1A4"/>
<g style="mix-blend-mode:multiply">
<path d="M317.639 203.699C313.904 202.27 310.081 201.082 306.193 200.143C264.023 189.899 236.782 191.22 222.802 201.579C221.817 205.022 221.311 208.585 221.297 212.166C221.299 213.588 221.376 215.009 221.526 216.423C221.379 217.973 221.297 219.523 221.297 221.105C221.316 223.47 221.502 225.83 221.853 228.169C221.853 228.169 247.427 230.175 266.705 240.615C281.126 248.429 296.807 263.633 296.807 263.633C315.66 250.583 320.86 234.368 320.86 221.105C320.846 215.157 319.755 209.26 317.639 203.699Z" fill="#D5DFDF"/>
</g>
<path d="M195.119 209.246L335.789 248.87L404.202 231.268L195.119 178.3V209.246Z" fill="#7993A2"/>
<path d="M195.119 209.246L335.789 248.87L336.884 206.211L195.119 178.3V209.246Z" fill="#97ABB6"/>
<g style="mix-blend-mode:multiply">
<path d="M222.671 217.011L335.789 248.87L336.197 232.981C297.2 232.018 262.159 204.254 222.671 217.011Z" fill="#E0E7E7"/>
</g>
<path d="M95.6221 169.23L472.534 255.476L524.367 5.88896L139.427 18.9393C139.427 18.9393 22.8756 75.1209 95.6221 169.23Z" fill="#DFE8ED"/>
<g style="mix-blend-mode:multiply" opacity="0.35">
<path d="M218.223 197.288L436.315 247.173C368.622 210.502 299.521 178.055 218.223 197.288Z" fill="#BCB7B6"/>
</g>
<path d="M659.983 99.8839L583.852 131.254L487.903 14.0944C487.903 14.0944 495.49 8.9721 513.885 6.8188C550.381 2.51219 609.883 7.8465 659.983 99.8839Z" fill="#779194"/>
<path d="M629.734 132.82C629.734 203.536 573.797 260.876 504.827 260.876C435.858 260.876 379.92 203.536 379.92 132.82C379.92 62.1032 435.842 6.80249 504.827 6.80249C573.813 6.80249 629.734 62.1032 629.734 132.82Z" fill="#C4D5DE"/>
<path d="M600.58 133.064C600.58 187.288 557.707 231.235 504.827 231.235C451.947 231.235 409.058 187.288 409.058 133.064C409.058 78.8403 451.931 36.443 504.827 36.443C557.723 36.443 600.58 78.8403 600.58 133.064Z" fill="#414843"/>
<path d="M591.75 133.13C591.75 182.362 552.834 222.263 504.827 222.263C456.82 222.263 417.888 182.395 417.888 133.13C417.888 83.8647 456.804 45.3662 504.827 45.3662C552.851 45.3662 591.75 83.8973 591.75 133.13Z" fill="#94B3C3"/>
<path d="M565.245 132.82C565.245 168.708 539.884 197.745 508.62 197.745C477.357 197.745 451.996 168.675 451.996 132.82C451.996 96.9639 477.357 67.8943 508.62 67.8943C539.884 67.8943 565.245 96.9639 565.245 132.82Z" fill="#53535D"/>
<path d="M490.569 181.122C511.872 181.122 529.141 159.496 529.141 132.82C529.141 106.143 511.872 84.5172 490.569 84.5172C469.266 84.5172 451.996 106.143 451.996 132.82C451.996 159.496 469.266 181.122 490.569 181.122Z" fill="#75757D"/>
<g style="mix-blend-mode:multiply">
<path d="M504.827 6.80249C508.425 6.80249 511.973 6.99825 515.488 7.29188C515.586 6.93299 515.701 6.59042 515.799 6.23154L139.492 18.9882C134.215 21.6692 129.114 24.6823 124.22 28.0093C98.7778 44.991 53.0107 85.3981 79.8921 143.831L220.169 182.28C246.805 187.174 274.635 184.581 298.982 172.705C327.449 158.79 360.659 157.256 385.316 158.822C397.503 159.526 409.615 161.201 421.534 163.831C421.649 163.178 419.082 95.4631 465.682 61.6628C477.292 53.2127 506.054 45.6272 521.882 47.128C591.096 53.6532 628.083 112.869 628.083 112.869C618.632 51.9729 567.125 6.80249 504.827 6.80249Z" fill="#D5DFDF"/>
</g>
<path d="M412.557 130.438C412.557 130.438 343.048 113.391 290.005 139.312C265.674 151.188 237.844 153.847 211.208 148.888L59.2239 120.536C59.2239 120.536 21.2401 36.3288 141.977 0L517.663 6.52516C517.663 6.52516 437.395 5.18749 412.557 130.438Z" fill="#DFE8ED"/>
<path d="M63.2794 82.7554C63.1626 92.0643 64.9254 101.301 68.4627 109.916L208.184 135.087C232.711 139.492 258.267 137.126 280.636 126.604C329.395 103.652 399.771 115.773 399.771 115.773C402.845 100.121 407.632 84.8531 414.045 70.2434C297.118 78.824 244.451 99.1988 63.2794 82.7554Z" fill="#C6D6DF"/>
<g style="mix-blend-mode:screen" opacity="0.65">
<path d="M421.599 55.4313C447.63 11.207 482.491 9.00472 488.852 8.98841L144.528 3.1647C92.9564 18.091 72.9098 42.1852 66.1895 63.7019C105.302 69.1341 144.414 73.8485 183.526 73.8485C264.873 78.9219 342.149 52.9191 421.599 55.4313Z" fill="#3399CC"/>
</g>
<path d="M518.317 129.427C517.369 136.196 512.234 141.074 506.871 140.324C501.508 139.573 497.894 133.472 498.843 126.702C499.791 119.932 504.925 115.039 510.288 115.805C515.652 116.572 519.314 122.657 518.317 129.427Z" fill="white"/>
<path d="M504.205 111.303C503.7 112.076 502.978 112.684 502.13 113.052C501.283 113.421 500.345 113.535 499.433 113.378C498.522 113.222 497.676 112.804 497 112.174C496.323 111.544 495.847 110.731 495.628 109.834C495.409 108.938 495.458 107.997 495.769 107.128C496.079 106.258 496.638 105.499 497.376 104.942C498.114 104.386 498.999 104.057 499.922 103.996C500.845 103.934 501.765 104.144 502.57 104.598C503.675 105.274 504.467 106.358 504.774 107.614C505.08 108.87 504.876 110.197 504.205 111.303Z" fill="white"/>
<g style="mix-blend-mode:screen" opacity="0.35">
<path d="M388.75 40.8312C409.649 33.0998 428.645 20.9902 444.458 5.318L141.961 0C85.8112 16.8675 63.9987 44.0448 56.7061 68.4C119.593 85.8548 125.381 48.9224 221.722 41.9405C240.003 40.6191 349.017 52.1524 388.75 40.8312Z" fill="#AAAAA6"/>
</g>
<g style="mix-blend-mode:multiply" opacity="0.45">
<path d="M342.394 100.275C282.827 93.7503 249.715 106.801 190.148 100.275C167.06 94.517 143.972 113.848 120.884 132.037L211.208 148.888C237.844 153.782 265.674 151.188 290.005 139.312C315.627 126.784 345.076 124.304 368.687 125.071C359.285 115.071 354.543 100.275 342.394 100.275Z" fill="#D5DFDF"/>
</g>
<g style="mix-blend-mode:screen" opacity="0.21">
<path d="M150.055 337.726C107.542 344.48 65.4867 346.519 22.7773 342.016V353.99C47.4023 370.531 86.1382 377.089 136.353 352.897C171.524 335.948 209.933 350.042 221.281 324.888L196.885 326.274C183.739 332 168.205 334.839 150.055 337.726Z" fill="#BFBAB5"/>
</g>
<g style="mix-blend-mode:screen" opacity="0.75">
<path d="M542.843 148.986C497.436 140.503 458.7 146.571 431.966 181.612C439.683 193.981 450.419 204.194 463.171 211.296C475.923 218.397 490.272 222.154 504.876 222.214C540.456 222.214 571.033 200.274 584.49 168.888C575.889 161.269 555.924 150.862 542.843 148.986Z" fill="#94B3C3"/>
</g>
</g>
<defs>
<clipPath id="clip0_483_192">
<rect width="660" height="435" fill="white"/>
</clipPath>
</defs>
</svg>
